# File created by Blade
# Date/Time:  Wed Jan 21 16:14:13 2015
# Frame Rate: 120.000 fps
#------------------------------------------------------
:FULLY-SPECIFIED
:DEGREES
648
root 18.568192 35.510946 -20.249473 -171.663408 -5.595104 -179.398826
Spine -19.154498 0.125128 0.699806
Head 9.855158 -3.181789 -1.846901
LeftShoulder -8.937337 -34.260710 17.192086
LeftArm 9.519729 11.907992 -7.276702
LeftForeArm 12.440875 0.000000 -2.429111
LeftHand -10.257903 -0.000000 -4.694171
LeftHandThumb1 -26.253704 0.000000 33.147579
RightShoulder -10.039104 -1.842307 -11.150600
RightArm 9.015264 38.125463 10.998585
RightForeArm -34.206492 0.000000 2.926191
RightHand -4.500946 0.000000 10.099010
RightHandThumb1 -24.326973 -0.000000 -32.862282
LeftUpLeg -1.106502 5.802102 0.124990
LeftLeg -4.888222 -0.000000 0.000000
LeftFoot -21.306409 24.536002 -12.250616
LeftToeBase 27.136054 -0.000000 -0.000000
RightUpLeg -0.922001 -9.014191 1.795329
RightLeg -3.133334 -0.000000 0.000000
RightFoot -22.378209 -28.860077 14.284408
RightToeBase 23.675539 -0.000000 -0.000000
649
root 18.566855 35.511211 -20.247675 -171.627271 -5.578464 -179.391673
Spine -19.160163 0.141715 0.709314
Head 9.800432 -3.159881 -1.828528
LeftShoulder -8.974253 -34.232172 17.236213
LeftArm 9.542338 11.845384 -7.318023
LeftForeArm 12.438723 -0.000000 -2.435770
LeftHand -10.305233 -0.000000 -4.682951
LeftHandThumb1 -26.253704 0.000000 33.147579
RightShoulder -10.066618 -1.883291 -11.121566
RightArm 9.099271 38.024087 11.011970
RightForeArm -34.200387 -0.000000 2.914072
RightHand -4.468185 -0.000000 10.092597
RightHandThumb1 -24.326973 -0.000000 -32.862282
LeftUpLeg -1.139013 5.822835 0.121514
LeftLeg -4.896556 -0.000000 0.000000
LeftFoot -21.311204 24.535799 -12.246388
LeftToeBase 27.362661 -0.000000 -0.000000
RightUpLeg -0.961049 -9.037359 1.805767
RightLeg -3.140298 -0.000000 0.000000
RightFoot -22.361249 -28.827737 14.264289
RightToeBase 23.652688 -0.000000 -0.000000
650
root 18.566614 35.512508 -20.242989 -171.554116 -5.562688 -179.382452
Spine -19.216306 0.166897 0.720173
Head 9.774601 -3.134319 -1.816776
LeftShoulder -8.971659 -34.220641 17.253473
LeftArm 9.537391 11.808394 -7.337846
LeftForeArm 12.412247 -0.000000 -2.433028
LeftHand -10.280087 0.000000 -4.626861
LeftHandThumb1 -26.253704 0.000000 33.147579
RightShoulder -10.102026 -1.929343 -11.110874
RightArm 9.185374 37.988937 11.060108
RightForeArm -34.319335 -0.000000 2.922165
RightHand -4.425468 0.000000 10.070494
RightHandThumb1 -24.326973 -0.000000 -32.862282
LeftUpLeg -1.219773 5.838202 0.120386
LeftLeg -4.893887 -0.000000 0.000000
LeftFoot -21.292678 24.538130 -12.224271
LeftToeBase 27.363855 -0.000000 -0.000000
RightUpLeg -1.047305 -9.026760 1.825144
RightLeg -3.136910 -0.000000 0.000000
RightFoot -22.349013 -28.815743 14.294852
RightToeBase 23.660423 -0.000000 -0.000000
651
root 18.565079 35.512772 -20.241875 -171.532190 -5.550193 -179.380274
Spine -19.211636 0.171119 0.727451
Head 9.742453 -3.107358 -1.801614
LeftShoulder -8.988889 -34.185844 17.278131
LeftArm 9.548636 11.764212 -7.355614
LeftForeArm 12.368593 0.000000 -2.436152
LeftHand -10.310139 0.000000 -4.595469
LeftHandThumb1 -26.253704 0.000000 33.147579
RightShoulder -10.108920 -1.958552 -11.094193
RightArm 9.241427 37.929663 11.078294
RightForeArm -34.345748 0.000000 2.930050
RightHand -4.379811 -0.000000 10.071428
RightHandThumb1 -24.326973 -0.000000 -32.862282
LeftUpLeg -1.235301 5.856046 0.115117
LeftLeg -4.906204 -0.000000 0.000000
LeftFoot -21.289135 24.526206 -12.246063
LeftToeBase 27.318075 -0.000000 -0.000000
RightUpLeg -1.066008 -9.045367 1.829535
RightLeg -3.154468 -0.000000 0.000000
RightFoot -22.319165 -28.783535 14.288970
RightToeBase 23.620444 -0.000000 -0.000000
652
root 18.563193 35.512896 -20.242257 -171.514768 -5.552032 -179.380955
Spine -19.210127 0.175922 0.729904
Head 9.728459 -3.096955 -1.791220
LeftShoulder -8.995993 -34.155267 17.297460
LeftArm 9.566079 11.717441 -7.380549
LeftForeArm 12.350418 0.000000 -2.444124
LeftHand -10.335465 -0.000000 -4.603929
LeftHandThumb1 -26.253704 0.000000 33.147579
RightShoulder -10.112918 -1.957286 -11.090471
RightArm 9.257464 37.848535 11.083244
RightForeArm -34.369783 -0.000000 2.944490
RightHand -4.429379 -0.000000 10.028695
RightHandThumb1 -24.326973 -0.000000 -32.862282
LeftUpLeg -1.237850 5.847310 0.109682
LeftLeg -4.934864 -0.000000 0.000000
LeftFoot -21.259426 24.551792 -12.204203
LeftToeBase 27.332164 -0.000000 -0.000000
RightUpLeg -1.070361 -9.039042 1.827814
RightLeg -3.175837 -0.000000 0.000000
RightFoot -22.326015 -28.798812 14.301625
RightToeBase 23.630955 -0.000000 -0.000000
653
root 18.561726 35.513329 -20.240911 -171.481001 -5.535950 -179.378795
Spine -19.224147 0.191092 0.733351
Head 9.737577 -3.040021 -1.746760
LeftShoulder -9.018370 -34.148989 17.323489
LeftArm 9.592407 11.681738 -7.399726
LeftForeArm 12.309605 -0.000000 -2.463031
LeftHand -10.291288 0.000000 -4.594345
LeftHandThumb1 -26.253704 0.000000 33.147579
RightShoulder -10.099428 -1.929799 -11.078356
RightArm 9.252229 37.791922 11.066037
RightForeArm -34.435741 -0.000000 2.962693
RightHand -4.435077 -0.000000 10.032678
RightHandThumb1 -24.326973 -0.000000 -32.862282
LeftUpLeg -1.262062 5.876829 0.102599
LeftLeg -4.962566 -0.000000 0.000000
LeftFoot -21.242522 24.560514 -12.209803
LeftToeBase 27.141129 -0.000000 -0.000000
RightUpLeg -1.101356 -9.018913 1.832686
RightLeg -3.191572 -0.000000 0.000000
RightFoot -22.317226 -28.810221 14.309252
RightToeBase 23.648416 -0.000000 -0.000000
654
root 18.560053 35.513584 -20.240653 -171.457510 -5.535366 -179.379616
Spine -19.241669 0.196106 0.736285
Head 9.728503 -3.057971 -1.750206
LeftShoulder -9.019157 -34.123735 17.340357
LeftArm 9.613023 11.614967 -7.430822
LeftForeArm 12.317419 -0.000000 -2.485483
LeftHand -10.252443 -0.000000 -4.583947
LeftHandThumb1 -26.253704 0.000000 33.147579
RightShoulder -10.095616 -1.941422 -11.074213
RightArm 9.285460 37.753986 11.075582
RightForeArm -34.434377 -0.000000 2.948898
RightHand -4.442683 0.000000 10.030591
RightHandThumb1 -24.326973 -0.000000 -32.862282
LeftUpLeg -1.278537 5.871099 0.096272
LeftLeg -4.972290 -0.000000 0.000000
LeftFoot -21.236025 24.555683 -12.202575
LeftToeBase 27.348340 -0.000000 -0.000000
RightUpLeg -1.112994 -9.034639 1.831710
RightLeg -3.215744 -0.000000 0.000000
RightFoot -22.286915 -28.788605 14.297999
RightToeBase 23.629654 -0.000000 -0.000000
655
root 18.558376 35.513937 -20.239368 -171.415162 -5.532349 -179.379543
Spine -19.280220 0.198216 0.743856
Head 9.755242 -3.050573 -1.750886
LeftShoulder -9.048508 -34.074235 17.371176
LeftArm 9.653740 11.531472 -7.477394
LeftForeArm 12.301394 0.000000 -2.506623
LeftHand -10.207699 -0.000000 -4.560604
LeftHandThumb1 -26.253704 0.000000 33.147579
RightShoulder -10.080694 -1.944261 -11.072313
RightArm 9.283868 37.689789 11.066156
RightForeArm -34.401507 -0.000000 2.979995
RightHand -4.413920 -0.000000 10.121641
RightHandThumb1 -24.326973 -0.000000 -32.862282
LeftUpLeg -1.320538 5.889414 0.088003
LeftLeg -4.976030 -0.000000 0.000000
LeftFoot -21.234653 24.535281 -12.213316
LeftToeBase 27.349182 -0.000000 -0.000000
RightUpLeg -1.153514 -9.039937 1.835830
RightLeg -3.225711 -0.000000 0.000000
RightFoot -22.272209 -28.787216 14.303665
RightToeBase 23.626479 -0.000000 -0.000000
656
root 18.556515 35.513693 -20.239827 -171.399193 -5.524068 -179.376786
Spine -19.289810 0.212640 0.754017
Head 9.780858 -3.043502 -1.752896
LeftShoulder -9.059619 -34.030964 17.399706
LeftArm 9.670039 11.432893 -7.540831
LeftForeArm 12.291558 -0.000000 -2.511948
LeftHand -10.213566 0.000000 -4.530162
LeftHandThumb1 -26.253704 0.000000 33.147579
RightShoulder -10.073081 -1.922366 -11.077576
RightArm 9.297708 37.662684 11.069386
RightForeArm -34.419711 -0.000000 2.981109
RightHand -4.402121 0.000000 10.154918
RightHandThumb1 -24.326973 -0.000000 -32.862282
LeftUpLeg -1.321076 5.925633 0.082184
LeftLeg -5.009958 -0.000000 0.000000
LeftFoot -21.219554 24.527989 -12.224100
LeftToeBase 27.132304 -0.000000 -0.000000
RightUpLeg -1.162601 -9.030806 1.837926
RightLeg -3.238296 -0.000000 0.000000
RightFoot -22.279923 -28.793791 14.313495
RightToeBase 23.649456 -0.000000 -0.000000
